<svg width="201" height="40" fill="none" xmlns="http://www.w3.org/2000/svg"><g clip-path="url(#clip0)" fill="#D7B399"><path d="M9.339 14.723L4.072 19.99l5.267 5.267 5.266-5.267-5.266-5.267zM19.994 4.085l-5.266 5.267 5.266 5.267 5.267-5.267-5.267-5.267zm-.003 21.309l-5.266 5.266 5.266 5.267 5.267-5.267-5.267-5.266zm10.656-10.667l-5.267 5.266 5.267 5.267 5.267-5.267-5.267-5.266z"/><path d="M28.61 12.687l-5.266 5.266 2.039 2.04 5.266-5.267-2.039-2.04zM17.955 23.353l-5.267 5.267 2.04 2.039 5.266-5.267-2.04-2.039zm7.304-14l-5.267 5.267 2.04 2.039 5.266-5.267-2.04-2.039zM14.618 20.005L9.35 25.272l2.04 2.039 5.266-5.267-2.04-2.039zm-3.239-7.319l-2.04 2.04 5.267 5.266 2.04-2.039-5.267-5.267zm3.348-3.336l-2.04 2.039 5.267 5.266 2.04-2.039-5.267-5.266zM25.38 19.99l-2.04 2.04 5.267 5.266 2.04-2.039-5.267-5.267zm-3.334 3.352l-2.04 2.04 5.267 5.266 2.04-2.04-5.267-5.266zm5.257 9.355l-2.033-2.033-5.27 5.27-5.27-5.27-2.033 2.033L20 40l7.303-7.303zM9.336 14.73l-2.033-2.033L0 20l7.303 7.303 2.033-2.033L4.066 20l5.27-5.27zm23.361-2.033l-2.033 2.033 5.27 5.27-5.27 5.27 2.033 2.033L40 20l-7.303-7.303zM25.27 9.336l2.033-2.033L20 0l-7.303 7.303 2.033 2.033L20 4.066l5.27 5.27z"/></g><path d="M65.472 15.368h-5.376V12.2h14.64v3.168H69.36V29h-3.888V15.368zM93.436 12.2V29h-3.888v-6.888h-7.632V29h-3.888V12.2h3.888v6.624h7.632V12.2h3.888zm18.183 13.68V29H98.611V12.2h12.696v3.12h-8.832v3.648h7.8v3.024h-7.8v3.888h9.144zm12.29-13.68h3.888v13.632h8.424V29h-12.312V12.2zm23.539 17.088c-1.744 0-3.32-.376-4.728-1.128-1.392-.752-2.488-1.784-3.288-3.096-.784-1.328-1.176-2.816-1.176-4.464 0-1.648.392-3.128 1.176-4.44a8.452 8.452 0 013.288-3.12c1.408-.752 2.984-1.128 4.728-1.128 1.744 0 3.312.376 4.704 1.128a8.452 8.452 0 013.288 3.12c.8 1.312 1.2 2.792 1.2 4.44 0 1.648-.4 3.136-1.2 4.464-.8 1.312-1.896 2.344-3.288 3.096-1.392.752-2.96 1.128-4.704 1.128zm0-3.312c.992 0 1.888-.224 2.688-.672a4.909 4.909 0 001.872-1.92c.464-.816.696-1.744.696-2.784 0-1.04-.232-1.968-.696-2.784a4.744 4.744 0 00-1.872-1.896c-.8-.464-1.696-.696-2.688-.696-.992 0-1.888.232-2.688.696a4.907 4.907 0 00-1.896 1.896c-.448.816-.672 1.744-.672 2.784 0 1.04.224 1.968.672 2.784a5.08 5.08 0 001.896 1.92c.8.448 1.696.672 2.688.672zm21.45 3.312c-1.744 0-3.32-.376-4.728-1.128-1.392-.752-2.488-1.784-3.288-3.096-.784-1.328-1.176-2.816-1.176-4.464 0-1.648.392-3.128 1.176-4.44a8.452 8.452 0 013.288-3.12c1.408-.752 2.984-1.128 4.728-1.128 1.744 0 3.312.376 4.704 1.128a8.452 8.452 0 013.288 3.12c.8 1.312 1.2 2.792 1.2 4.44 0 1.648-.4 3.136-1.2 4.464-.8 1.312-1.896 2.344-3.288 3.096-1.392.752-2.96 1.128-4.704 1.128zm0-3.312c.992 0 1.888-.224 2.688-.672a4.909 4.909 0 001.872-1.92c.464-.816.696-1.744.696-2.784 0-1.04-.232-1.968-.696-2.784a4.744 4.744 0 00-1.872-1.896c-.8-.464-1.696-.696-2.688-.696-.992 0-1.888.232-2.688.696a4.907 4.907 0 00-1.896 1.896c-.448.816-.672 1.744-.672 2.784 0 1.04.224 1.968.672 2.784a5.08 5.08 0 001.896 1.92c.8.448 1.696.672 2.688.672zM189.484 12.2c1.488 0 2.776.248 3.864.744 1.104.496 1.952 1.2 2.544 2.112.592.912.888 1.992.888 3.24 0 1.232-.296 2.312-.888 3.24-.592.912-1.44 1.616-2.544 2.112-1.088.48-2.376.72-3.864.72H186.1V29h-3.888V12.2h7.272zm-.216 9c1.168 0 2.056-.248 2.664-.744.608-.512.912-1.232.912-2.16 0-.944-.304-1.664-.912-2.16-.608-.512-1.496-.768-2.664-.768H186.1V21.2h3.168z" fill="#fff"/><defs><clipPath id="clip0"><path fill="#fff" d="M0 0h40v40H0z"/></clipPath></defs></svg>