<svg width="201" height="41" fill="none" xmlns="http://www.w3.org/2000/svg"><g clip-path="url(#clip0)" fill="#D7B399" stroke="#F9F6F1"><path d="M4.776 20.69l4.563-4.609 4.563 4.609-4.563 4.609-4.563-4.61zM15.431 9.945l4.563-4.608 4.563 4.608-4.563 4.61-4.563-4.61zm-.003 21.522l4.563-4.609 4.563 4.609-4.563 4.609-4.563-4.609zm10.656-10.774l4.563-4.609 4.563 4.61-4.563 4.608-4.563-4.609zm-2.037-2.06l4.563-4.609 1.336 1.349-4.563 4.609-1.336-1.35zM13.392 29.406l4.563-4.609 1.335 1.35-4.563 4.608-1.335-1.349zm7.304-14.14l4.563-4.609 1.335 1.349-4.563 4.609-1.335-1.35zM10.055 26.025l4.563-4.609 1.335 1.349-4.563 4.608-1.335-1.348zm-.012-10.652l1.336-1.35 4.563 4.61-1.336 1.349-4.563-4.61zm3.348-3.37l1.336-1.35 4.563 4.61-1.336 1.348-4.563-4.608zM24.044 22.75l1.336-1.35 4.563 4.61-1.336 1.348-4.563-4.608zm-3.334 3.385l1.336-1.349 4.563 4.609-1.336 1.349-4.563-4.609z"/><path d="M14.73 32.181l4.915 4.964.355.359.355-.36 4.915-4.963 1.33 1.343-6.6 6.665-6.6-6.665 1.33-1.343zM3.711 20.348l-.348.352.348.352 4.921 4.97-1.33 1.343L.705 20.7l6.599-6.665 1.33 1.343-4.922 4.97zm32.578.704l.348-.352-.348-.352-4.922-4.97 1.33-1.343 6.6 6.665-6.6 6.665-1.33-1.343 4.922-4.97zM14.73 9.219L13.4 7.876 20 1.21l6.6 6.665-1.33 1.343-4.915-4.964L20 3.896l-.355.36-4.915 4.963z"/></g><path d="M65.472 15.928h-5.376V12.76h14.64v3.168H69.36V29.56h-3.888V15.928zm27.964-3.168v16.8h-3.888v-6.888h-7.632v6.888h-3.888v-16.8h3.888v6.624h7.632V12.76h3.888zm18.183 13.68v3.12H98.611v-16.8h12.696v3.12h-8.832v3.648h7.8v3.024h-7.8v3.888h9.144zm12.29-13.68h3.888v13.632h8.424v3.168h-12.312v-16.8zm23.539 17.088c-1.744 0-3.32-.376-4.728-1.128-1.392-.752-2.488-1.784-3.288-3.096-.784-1.328-1.176-2.816-1.176-4.464 0-1.648.392-3.128 1.176-4.44a8.452 8.452 0 013.288-3.12c1.408-.752 2.984-1.128 4.728-1.128 1.744 0 3.312.376 4.704 1.128a8.452 8.452 0 013.288 3.12c.8 1.312 1.2 2.792 1.2 4.44 0 1.648-.4 3.136-1.2 4.464-.8 1.312-1.896 2.344-3.288 3.096-1.392.752-2.96 1.128-4.704 1.128zm0-3.312c.992 0 1.888-.224 2.688-.672a4.909 4.909 0 001.872-1.92c.464-.816.696-1.744.696-2.784 0-1.04-.232-1.968-.696-2.784a4.744 4.744 0 00-1.872-1.896c-.8-.464-1.696-.696-2.688-.696-.992 0-1.888.232-2.688.696a4.907 4.907 0 00-1.896 1.896c-.448.816-.672 1.744-.672 2.784 0 1.04.224 1.968.672 2.784a5.08 5.08 0 001.896 1.92c.8.448 1.696.672 2.688.672zm21.45 3.312c-1.744 0-3.32-.376-4.728-1.128-1.392-.752-2.488-1.784-3.288-3.096-.784-1.328-1.176-2.816-1.176-4.464 0-1.648.392-3.128 1.176-4.44a8.452 8.452 0 013.288-3.12c1.408-.752 2.984-1.128 4.728-1.128 1.744 0 3.312.376 4.704 1.128a8.452 8.452 0 013.288 3.12c.8 1.312 1.2 2.792 1.2 4.44 0 1.648-.4 3.136-1.2 4.464-.8 1.312-1.896 2.344-3.288 3.096-1.392.752-2.96 1.128-4.704 1.128zm0-3.312c.992 0 1.888-.224 2.688-.672a4.909 4.909 0 001.872-1.92c.464-.816.696-1.744.696-2.784 0-1.04-.232-1.968-.696-2.784a4.744 4.744 0 00-1.872-1.896c-.8-.464-1.696-.696-2.688-.696-.992 0-1.888.232-2.688.696a4.907 4.907 0 00-1.896 1.896c-.448.816-.672 1.744-.672 2.784 0 1.04.224 1.968.672 2.784a5.08 5.08 0 001.896 1.92c.8.448 1.696.672 2.688.672zm20.586-13.776c1.488 0 2.776.248 3.864.744 1.104.496 1.952 1.2 2.544 2.112.592.912.888 1.992.888 3.24 0 1.232-.296 2.312-.888 3.24-.592.912-1.44 1.616-2.544 2.112-1.088.48-2.376.72-3.864.72H186.1v4.632h-3.888v-16.8h7.272zm-.216 9c1.168 0 2.056-.248 2.664-.744.608-.512.912-1.232.912-2.16 0-.944-.304-1.664-.912-2.16-.608-.512-1.496-.768-2.664-.768H186.1v5.832h3.168z" fill="#212121"/><defs><clipPath id="clip0"><path fill="#fff" transform="translate(0 .5)" d="M0 0h40v40.4H0z"/></clipPath></defs></svg>