<svg width="30" height="31" fill="none" xmlns="http://www.w3.org/2000/svg"><path d="M22.294 12.146l-6.056-9.174c-.275-.278-.688-.556-1.1-.556-.413 0-.826.14-1.101.556l-6.055 9.174H1.376c-.826 0-1.376.556-1.376 1.39v.417l3.44 12.926c.276 1.112 1.377 2.085 2.615 2.085h17.89c1.238 0 2.34-.834 2.615-2.085L30 13.953v-.417c0-.834-.55-1.39-1.376-1.39h-6.33zm-11.285 0l4.129-6.116 4.128 6.116H11.01zm4.129 11.119c-1.514 0-2.753-1.25-2.753-2.78 0-1.529 1.239-2.78 2.753-2.78 1.513 0 2.752 1.251 2.752 2.78 0 1.53-1.239 2.78-2.752 2.78z" fill="#212121"/></svg>