<svg width="201" height="41" viewBox="0 0 201 41" fill="none" xmlns="http://www.w3.org/2000/svg">
<g clip-path="url(#clip0)">
<path d="M4.77579 20.6899L9.33879 16.0813L13.9018 20.6899L9.33879 25.2986L4.77579 20.6899Z" fill="#D7B399" stroke="#F9F6F1"/>
<path d="M15.4314 9.9455L19.9944 5.33686L24.5574 9.9455L19.9944 14.5541L15.4314 9.9455Z" fill="#D7B399" stroke="#F9F6F1"/>
<path d="M15.4284 31.467L19.9914 26.8584L24.5543 31.467L19.9913 36.0757L15.4284 31.467Z" fill="#D7B399" stroke="#F9F6F1"/>
<path d="M26.084 20.6931L30.647 16.0845L35.21 20.6931L30.647 25.3017L26.084 20.6931Z" fill="#D7B399" stroke="#F9F6F1"/>
<path d="M24.0472 18.6328L28.6102 14.0241L29.9458 15.373L25.3828 19.9817L24.0472 18.6328Z" fill="#D7B399" stroke="#F9F6F1"/>
<path d="M13.3917 29.4061L17.9547 24.7974L19.2903 26.1464L14.7273 30.755L13.3917 29.4061Z" fill="#D7B399" stroke="#F9F6F1"/>
<path d="M20.6957 15.2657L25.2587 10.6571L26.5943 12.006L22.0313 16.6147L20.6957 15.2657Z" fill="#D7B399" stroke="#F9F6F1"/>
<path d="M10.0547 26.0246L14.6177 21.416L15.9533 22.7649L11.3903 27.3735L10.0547 26.0246Z" fill="#D7B399" stroke="#F9F6F1"/>
<path d="M10.0432 15.3729L11.3788 14.0239L15.9418 18.6326L14.6062 19.9815L10.0432 15.3729Z" fill="#D7B399" stroke="#F9F6F1"/>
<path d="M13.3914 12.0026L14.727 10.6536L19.29 15.2623L17.9544 16.6112L13.3914 12.0026Z" fill="#D7B399" stroke="#F9F6F1"/>
<path d="M24.044 22.7499L25.3796 21.4009L29.9426 26.0096L28.607 27.3585L24.044 22.7499Z" fill="#D7B399" stroke="#F9F6F1"/>
<path d="M20.7104 26.135L22.046 24.7861L26.609 29.3947L25.2734 30.7436L20.7104 26.135Z" fill="#D7B399" stroke="#F9F6F1"/>
<path d="M14.7303 32.1812L19.6447 37.1447L20 37.5036L20.3553 37.1447L25.2697 32.1812L26.5993 33.524L20 40.1893L13.4007 33.524L14.7303 32.1812Z" fill="#D7B399" stroke="#F9F6F1"/>
<path d="M3.71108 20.3482L3.36277 20.7L3.71108 21.0518L8.63248 26.0224L7.3029 27.3653L0.703615 20.7L7.3029 14.0347L8.63248 15.3776L3.71108 20.3482Z" fill="#D7B399" stroke="#F9F6F1"/>
<path d="M36.2889 21.0518L36.6372 20.7L36.2889 20.3482L31.3675 15.3776L32.6971 14.0347L39.2964 20.7L32.6971 27.3653L31.3675 26.0224L36.2889 21.0518Z" fill="#D7B399" stroke="#F9F6F1"/>
<path d="M14.7303 9.21881L13.4007 7.87593L20 1.21065L26.5993 7.87593L25.2697 9.21881L20.3553 4.25526L20 3.8964L19.6447 4.25526L14.7303 9.21881Z" fill="#D7B399" stroke="#F9F6F1"/>
</g>
<path d="M65.472 15.928H60.096V12.76H74.736V15.928H69.36V29.56H65.472V15.928ZM93.4359 12.76V29.56H89.5479V22.672H81.9159V29.56H78.0279V12.76H81.9159V19.384H89.5479V12.76H93.4359ZM111.619 26.44V29.56H98.6108V12.76H111.307V15.88H102.475V19.528H110.275V22.552H102.475V26.44H111.619ZM123.909 12.76H127.797V26.392H136.221V29.56H123.909V12.76ZM147.448 29.848C145.704 29.848 144.128 29.472 142.72 28.72C141.328 27.968 140.232 26.936 139.432 25.624C138.648 24.296 138.256 22.808 138.256 21.16C138.256 19.512 138.648 18.032 139.432 16.72C140.232 15.392 141.328 14.352 142.72 13.6C144.128 12.848 145.704 12.472 147.448 12.472C149.192 12.472 150.76 12.848 152.152 13.6C153.544 14.352 154.64 15.392 155.44 16.72C156.24 18.032 156.64 19.512 156.64 21.16C156.64 22.808 156.24 24.296 155.44 25.624C154.64 26.936 153.544 27.968 152.152 28.72C150.76 29.472 149.192 29.848 147.448 29.848ZM147.448 26.536C148.44 26.536 149.336 26.312 150.136 25.864C150.936 25.4 151.56 24.76 152.008 23.944C152.472 23.128 152.704 22.2 152.704 21.16C152.704 20.12 152.472 19.192 152.008 18.376C151.56 17.56 150.936 16.928 150.136 16.48C149.336 16.016 148.44 15.784 147.448 15.784C146.456 15.784 145.56 16.016 144.76 16.48C143.96 16.928 143.328 17.56 142.864 18.376C142.416 19.192 142.192 20.12 142.192 21.16C142.192 22.2 142.416 23.128 142.864 23.944C143.328 24.76 143.96 25.4 144.76 25.864C145.56 26.312 146.456 26.536 147.448 26.536ZM168.898 29.848C167.154 29.848 165.578 29.472 164.17 28.72C162.778 27.968 161.682 26.936 160.882 25.624C160.098 24.296 159.706 22.808 159.706 21.16C159.706 19.512 160.098 18.032 160.882 16.72C161.682 15.392 162.778 14.352 164.17 13.6C165.578 12.848 167.154 12.472 168.898 12.472C170.642 12.472 172.21 12.848 173.602 13.6C174.994 14.352 176.09 15.392 176.89 16.72C177.69 18.032 178.09 19.512 178.09 21.16C178.09 22.808 177.69 24.296 176.89 25.624C176.09 26.936 174.994 27.968 173.602 28.72C172.21 29.472 170.642 29.848 168.898 29.848ZM168.898 26.536C169.89 26.536 170.786 26.312 171.586 25.864C172.386 25.4 173.01 24.76 173.458 23.944C173.922 23.128 174.154 22.2 174.154 21.16C174.154 20.12 173.922 19.192 173.458 18.376C173.01 17.56 172.386 16.928 171.586 16.48C170.786 16.016 169.89 15.784 168.898 15.784C167.906 15.784 167.01 16.016 166.21 16.48C165.41 16.928 164.778 17.56 164.314 18.376C163.866 19.192 163.642 20.12 163.642 21.16C163.642 22.2 163.866 23.128 164.314 23.944C164.778 24.76 165.41 25.4 166.21 25.864C167.01 26.312 167.906 26.536 168.898 26.536ZM189.484 12.76C190.972 12.76 192.26 13.008 193.348 13.504C194.452 14 195.3 14.704 195.892 15.616C196.484 16.528 196.78 17.608 196.78 18.856C196.78 20.088 196.484 21.168 195.892 22.096C195.3 23.008 194.452 23.712 193.348 24.208C192.26 24.688 190.972 24.928 189.484 24.928H186.1V29.56H182.212V12.76H189.484ZM189.268 21.76C190.436 21.76 191.324 21.512 191.932 21.016C192.54 20.504 192.844 19.784 192.844 18.856C192.844 17.912 192.54 17.192 191.932 16.696C191.324 16.184 190.436 15.928 189.268 15.928H186.1V21.76H189.268Z" fill="#212121"/>
<defs>
<clipPath id="clip0">
<rect width="40" height="40.4" fill="white" transform="translate(0 0.5)"/>
</clipPath>
</defs>
</svg>
