<svg width="30" height="31" viewBox="0 0 30 31" fill="none" xmlns="http://www.w3.org/2000/svg">
<path d="M22.2936 12.1457L16.2385 2.97235C15.9632 2.69436 15.5505 2.41638 15.1376 2.41638C14.7248 2.41638 14.3119 2.55537 14.0367 2.97235L7.98165 12.1457H1.37615C0.550459 12.1457 0 12.7017 0 13.5356C0 13.6746 0 13.8136 0 13.9526L3.44037 26.8788C3.7156 27.9907 4.81651 28.9636 6.05505 28.9636H23.945C25.1835 28.9636 26.2844 28.1297 26.5596 26.8788L30 13.9526C30 13.8136 30 13.6746 30 13.5356C30 12.7017 29.4495 12.1457 28.6239 12.1457H22.2936ZM11.0092 12.1457L15.1376 6.03014L19.2661 12.1457H11.0092ZM15.1376 23.265C13.6239 23.265 12.3853 22.0141 12.3853 20.4852C12.3853 18.9563 13.6239 17.7054 15.1376 17.7054C16.6514 17.7054 17.8899 18.9563 17.8899 20.4852C17.8899 22.0141 16.6514 23.265 15.1376 23.265Z" fill="#212121"/>
</svg>
